<svg width="128" height="128" viewBox="0 0 128 128" fill="none" xmlns="http://www.w3.org/2000/svg">
  <rect x="6" y="6" width="116" height="116" rx="34" fill="url(#bg)"/>
  <rect x="6.75" y="6.75" width="114.5" height="114.5" rx="33.25" stroke="url(#stroke)" stroke-width="1.5"/>
  <circle cx="64" cy="64" r="33" stroke="url(#ring)" stroke-width="10"/>
  <path d="M44 64C44 52.402 53.402 43 65 43H86V53H65C58.373 53 53 58.373 53 65C53 71.627 58.373 77 65 77H76V68H62V59H88V86H65C53.402 86 44 76.598 44 65V64Z" fill="url(#ice)"/>
  <path d="M84.5 39.5C78.091 39.5 72.903 41.251 68.936 44.753C64.969 48.217 62.985 52.728 62.985 58.286C62.985 63.106 64.44 67.032 67.35 70.064C70.26 73.058 74.562 75.233 80.256 76.589L86.042 77.96C88.095 78.443 89.122 79.374 89.122 80.753C89.122 81.903 88.537 82.853 87.367 83.603C86.234 84.354 84.63 84.729 82.554 84.729C78.474 84.729 74.597 83.143 70.924 79.971L64.5 87.432C69.191 91.902 75.148 94.137 82.37 94.137C88.92 94.137 94.137 92.448 98.019 89.069C101.902 85.653 103.843 81.107 103.843 75.431C103.843 70.582 102.447 66.563 99.656 63.375C96.866 60.187 92.6 57.889 86.859 56.48L81.128 55.109C77.267 54.176 75.336 52.674 75.336 50.603C75.336 49.225 75.901 48.142 77.031 47.354C78.162 46.528 79.85 46.115 82.095 46.115C85.545 46.115 88.92 47.392 92.219 49.946L97.514 42.588C93.095 40.529 88.757 39.5 84.5 39.5Z" fill="url(#flare)"/>
  <circle cx="97" cy="31" r="5" fill="url(#spark)"/>
  <defs>
    <linearGradient id="bg" x1="18" y1="10" x2="108" y2="118" gradientUnits="userSpaceOnUse">
      <stop stop-color="#112236"/>
      <stop offset="0.52" stop-color="#0D1522"/>
      <stop offset="1" stop-color="#0A0F18"/>
    </linearGradient>
    <linearGradient id="stroke" x1="14" y1="14" x2="114" y2="116" gradientUnits="userSpaceOnUse">
      <stop stop-color="#6BE3FF" stop-opacity="0.95"/>
      <stop offset="1" stop-color="#FFB15A" stop-opacity="0.7"/>
    </linearGradient>
    <linearGradient id="ring" x1="38" y1="34" x2="91" y2="93" gradientUnits="userSpaceOnUse">
      <stop stop-color="#16385B"/>
      <stop offset="1" stop-color="#0D1C2D"/>
    </linearGradient>
    <linearGradient id="ice" x1="48" y1="45" x2="83" y2="88" gradientUnits="userSpaceOnUse">
      <stop stop-color="#B6F5FF"/>
      <stop offset="1" stop-color="#42C7FF"/>
    </linearGradient>
    <linearGradient id="flare" x1="67" y1="42" x2="101" y2="93" gradientUnits="userSpaceOnUse">
      <stop stop-color="#FFE0B0"/>
      <stop offset="1" stop-color="#FF9E39"/>
    </linearGradient>
    <radialGradient id="spark" cx="0" cy="0" r="1" gradientUnits="userSpaceOnUse" gradientTransform="translate(97 31) rotate(90) scale(5)">
      <stop stop-color="#FFF3DA"/>
      <stop offset="1" stop-color="#FF9E39"/>
    </radialGradient>
  </defs>
</svg>
